<svg xmlns="http://www.w3.org/2000/svg" width="20px" height="20px" viewBox="0 0 20 20"
     version="1.1"  role="img" focusable="false">
    <g stroke="none" stroke-width="1" fill="none" fill-rule="evenodd">
        <path
                d="M1.61289944,0.209704612 L1.70710678,0.292893219 L5.075,3.66 L5.81912524,3.065458 C6.25030536,2.72034621 6.87961429,2.79011838 7.22472609,3.2212985 C7.54329082,3.61931092 7.50834496,4.18614315 7.16194883,4.54243278 L7.06888559,4.62689934 L6.498,5.083 L12.368,10.953 L14.3945529,9.4124478 C14.8341083,9.07806859 15.4615063,9.16333077 15.7958855,9.60288622 C16.1045433,10.0086297 16.0556367,10.5744284 15.700564,10.9220718 L15.6054471,11.0042189 L13.795,12.381 L17.1201454,15.7070003 C17.2893191,15.394721 17.6198933,15.1826473 18,15.1826473 C18.5128358,15.1826473 18.9355072,15.5686875 18.9932723,16.0660261 L19,16.1826473 L19,17.586 L19.55334,18.1391264 C19.9438643,18.5296507 19.9438643,19.1628157 19.55334,19.55334 C19.192856,19.9138239 18.6256249,19.9415535 18.2333337,19.6365286 L18.1391264,19.55334 L0.292893219,1.70710678 C-0.0976310729,1.31658249 -0.0976310729,0.683417511 0.292893219,0.292893219 C0.65337718,-0.0675907428 1.22060824,-0.0953202783 1.61289944,0.209704612 Z M2.231,5.93713999 L3.489,7.19513999 L3.28506529,7.39808902 C3.10953309,7.60813372 2.89395854,7.85773842 2.89395854,8.36650864 C2.89395854,8.70568879 2.9890371,8.99092446 3.17919421,9.22221565 L8.31023058,13.9667838 L8.44984173,14.0921328 C9.11518793,14.6448085 10.0138826,14.7914044 10.8047207,14.5114882 L15.293,19.00014 L3.3037037,19 C2.0844158,19 1.0863685,18.0527564 1.00531471,16.854022 L1,16.6962963 L1,8.02951352 C1,7.32987736 1.31794451,6.66815319 1.86416493,6.23096442 L2.231,5.93713999 Z M18,10.1826473 C18.5128358,10.1826473 18.9355072,10.5686875 18.9932723,11.0660261 L19,11.1826473 L19,13.1826473 C19,13.734932 18.5522847,14.1826473 18,14.1826473 C17.4871642,14.1826473 17.0644928,13.7966071 17.0067277,13.2992684 L17,13.1826473 L17,11.1826473 C17,10.6303625 17.4477153,10.1826473 18,10.1826473 Z M17.4727539,5.71022134 L17.5755545,5.78252206 L18.1358351,6.23096442 C18.6365371,6.6317208 18.945424,7.22114927 18.993428,7.85550232 L19,8.02951352 L19,8.18264726 C19,8.73493201 18.5522847,9.18264726 18,9.18264726 C17.4871642,9.18264726 17.0644928,8.79660707 17.0067277,8.29926839 L17,8.18264726 L17,8.02951352 C17,7.96033728 16.9764225,7.89397244 16.9342547,7.84079842 L16.8860747,7.79240577 L16.3257941,7.3439634 C15.894614,6.99885161 15.8248419,6.36954267 16.1699537,5.93836255 C16.4885184,5.54035013 17.0492393,5.45028296 17.4727539,5.71022134 Z M13.5691505,2.58582046 L13.6719511,2.65812118 L15.2333925,3.90788153 C15.6645726,4.25299332 15.7343448,4.88230226 15.389233,5.31348238 C15.0706683,5.7114948 14.5099474,5.80156198 14.0864328,5.54162359 L13.9836321,5.46932287 L12.4221908,4.21956252 C11.9910107,3.87445073 11.9212385,3.24514179 12.2663503,2.81396167 C12.584915,2.41594925 13.1456359,2.32588207 13.5691505,2.58582046 Z M11.1855554,0.694558602 C11.6590039,0.978926306 11.8122841,1.5932577 11.5279164,2.06670617 C11.2435487,2.54015464 10.6292173,2.69343488 10.1557688,2.40906718 C10.0695683,2.35729251 9.96371916,2.35263418 9.87395654,2.39355839 L9.81020918,2.43277432 L9.4110579,2.75225057 C8.97987778,3.09736237 8.35056884,3.0275902 8.00545705,2.59641008 C7.68689232,2.19839766 7.72183818,1.63156542 8.06823431,1.2752758 L8.16129755,1.19080923 L8.56044882,0.871332974 C9.31465725,0.267672905 10.3626529,0.200298067 11.1855554,0.694558602 Z"
                fill="currentColor"/>
    </g>
</svg>